<?xml version="1.0" encoding="utf-8"?>
<!-- Generator: Adobe Illustrator 24.3.0, SVG Export Plug-In . SVG Version: 6.00 Build 0)  -->
<svg version="1.1" id="Layer_1" xmlns="http://www.w3.org/2000/svg" xmlns:xlink="http://www.w3.org/1999/xlink" x="0px" y="0px"
	 viewBox="0 0 484 333" style="enable-background:new 0 0 484 333;" xml:space="preserve">
<style type="text/css">
	.st0{fill:none;stroke:#000000;stroke-width:4;stroke-miterlimit:10;}
	.st1{fill:none;stroke:#000000;stroke-width:4;stroke-miterlimit:10;stroke-dasharray:12.0857,12.0857;}
	.st2{fill:none;stroke:#000000;stroke-width:4;stroke-miterlimit:10;stroke-dasharray:12,12;}
	.st3{fill:none;stroke:#000000;stroke-width:45;stroke-linecap:round;stroke-miterlimit:10;}
</style>
<g>
	<g>
		<path class="st0" d="M-539,115.5c1.6-1.2,3.1-2.4,4.8-3.6"/>
		<path class="st1" d="M-524.4,104.8C-442.3,47.6-293.8-6.3-238,60c79.3,94.3-21,220-152,151c-55.2-29.1-85.1-228.8,191.8-205.2
			c87.2,7.4,294.5,142.2,60.7,322.2"/>
		<path class="st0" d="M-142.3,331.6c-1.6,1.2-3.2,2.4-4.8,3.6"/>
		<g>
			<path d="M-136.7,303.4c1,0.4,1.5,1.5,1.2,2.6l-10.9,28.6l30.5-2.2c1.1-0.1,2.1,0.7,2.1,1.8c0.1,1.1-0.8,2.1-1.8,2.1l-33.7,2.4
				c-0.7,0-1.3-0.3-1.7-0.8s-0.5-1.3-0.3-1.9l12-31.5c0.1-0.4,0.4-0.7,0.7-0.9C-138,303.3-137.3,303.2-136.7,303.4z"/>
		</g>
	</g>
</g>
<g>
	<g>
		<path class="st2" d="M484,159c-66-24-176,62-217,73S18,252.6,52,133c48-169,325.4-153.7,257-6c-17.7,38.3-108.6,88.1-110,173.2"/>
		<g>
			<path d="M180.2,272.6c0.9-0.6,2.2-0.3,2.8,0.6l16.2,26l16.7-25.6c0.6-0.9,1.8-1.2,2.8-0.6c0.9,0.6,1.2,1.9,0.6,2.8l-18.4,28.3
				c-0.4,0.6-1,0.9-1.7,0.9s-1.3-0.4-1.7-0.9l-17.8-28.7c-0.2-0.3-0.3-0.7-0.3-1.1C179.2,273.7,179.5,273,180.2,272.6z"/>
		</g>
	</g>
</g>
<path class="st3" d="M-120,724c6-7,101-51,141-40.5S-43,865-43,865"/>
<path class="st3" d="M0,520.1C-69.5,467-504.4,647.2-256.2,787.4s179.7-68.1,213.5-96.1"/>
</svg>
